/* XPM */
static char * son90 [] = {
"69 52 38 1",
" 	c #000049495555",
".	c #55556D6DAAAA",
"X	c #55554949AAAA",
"o	c #000024245555",
"O	c #555549495555",
"+	c #55556D6D5555",
"@	c #55559292AAAA",
"#	c #00006D6D5555",
"$	c #AAAAB6B6FFFF",
"%	c #AAAAB6B6AAAA",
"&	c #5555B6B6AAAA",
"*	c #AAAADBDBAAAA",
"=	c #555592925555",
"-	c #AAAA9292FFFF",
";	c #55559292FFFF",
":	c #AAAA9292AAAA",
"?	c #5555B6B6FFFF",
">	c #000092925555",
",	c #5555B6B65555",
"<	c #AAAADBDBFFFF",
"1	c #5555DBDBAAAA",
"2	c #AAAA6D6DAAAA",
"3	c #AAAAFFFFFFFF",
"4	c #FFFFDBDBFFFF",
"5	c #FFFFFFFFFFFF",
"6	c #55556D6DFFFF",
"7	c #FFFFB6B6FFFF",
"8	c #AAAA92925555",
"9	c #FFFF92925555",
"0	c #AAAA6D6D5555",
"q	c #FFFFB6B65555",
"w	c #AAAA92920000",
"e	c #AAAA49495555",
"r	c #FFFFDBDBAAAA",
"t	c #FFFF6D6D5555",
"y	c #AAAADBDB5555",
"u	c #AAAAB6B65555",
"i	c #AAAA6D6D0000",
" . X X .oO X O . O XoO X X X .+@#. . .+@#@+@#@@$@@.@@@.@#@@%&*@%=@&%@",
"O OOO OOO OOO O.+ OOO OOO OOO+.+++.+OO...+..@.@@@@@@@@@...@@@@@@@@@@@",
" . X X X X X X @ XoX X X . . @ . .#. .#@+@#@+@+@@$@@.$.@+@+@@@+@+@#@.",
"OOO OOO O O OO..O O OOO OOO+@O+OOO. OO.+.+..@.@@@@@@@@@@@@@@@@@@@@@.@",
" . . X X X .oO+. O X O X .#@ . . X#Xo.+.#.+@#@+@+@@-.;@$@@.-@$@%@&@:.",
"++.+O OOO OOO @OO OOO OOO .++ +OO .OO+...+...+@@@@&@@.;@@@;@@@&&&&&@@",
"#@#@#. @+. . @ X X X X X .#. . . X X @#@#@#@+@#@+@@$.;.-.@+@@$@%@%=:@",
"@=@+@@@@..@.@.O XOO OOO OO@++++++O. O+.+.+.+....@@@@?@@@@@@.@@&@&&@@@",
"#.+@#@@@#. . X XoX XoO . . @#.+@ X Xo.+@#.+@#.+@#@.$@$@$@@+@#@@$=:@:=",
"++.+@=@@@=@+X OOO OOO O.. OO.+.++O.OOO...+.+.+...+@@@&*&&@@@@@%&&@@@@",
"#@#@=@#@=&=&+. X XoX X . XoX @#@+. X .#.#@#@+@#@+@#@@$&%&$@@+%=%&%=&=",
"++++@@@=@=@@@@@+OOO OO. O O OO+++.. OO.+.+.+.+..@...@@&&&&&@&&&&%&@=&",
"#@+@#@=@#@+@#@=%>. .oX XoO XoO#@#@+.oX . .#@#.+@#@+@#@@%@%@*,*&*&*@%=",
"++@+@@&@@@&&@+@=@=@+O .OO OOO O++=.+=+OOO OO++@..+@..+%@&&%&*&*&%&%&&",
"#@#@=&=@=&=@=&#@=&=@#.#. X X X X .+@#.#. . . .#@+@+@+@@@+$@*,*,*,%,%=",
"@+@=@&@@&&%&@=@=@=@=@+@.OOO OOO +===..@ @O++OOO+.@@.@@@::@%&*&&&%&&&&",
"#@+@>@=&>&=@@*@%=@=@>@+@#. XoO .#@=@#@X.O@ @oO .#:+@#@.$=%&*,*&*,%@$@",
".+@+@=@@@=@&&=&@@=&@@=@@@+.+.OX.@+@@@=..==@@XO.O.+.@&&@@.@%&&&%&&&%&&",
" . .=&#@#@=&=%=@=@>@=@=$:$@@@$=*@..:@$.?@%@. .O. @#@+@@@#%@&=&@$&$&%&",
"+O+O@@+O+O++.+++++++@@@%<%@@@..@@@X..@&@&=@ XOX O..+@@@OX@@@@@@@@@&&%",
" X . @ . X .oO XoX .#@.%+...#... ..- %&%=@ . . XoX.-#@.X @@$@@.@@@@$@",
"O XOO+.OO OOO XO.O@&@@&....@..@.. ..@@*&.....++OO @@@O@@@&@@%&@@@@@@&",
" X . .#X X X .#..@@$.@@@+. ..-O@.....@@@ @ .#. . ..@+@#@+@@%@<@&=%=%@",
"XOO XO. OOO ....@@@@@..O+OO O....@@.@@@@&&@@@+.+..@@...+..&&*%&&%&&&%",
" X . .+. X ..:@:#.@-@%.. .+.#..-#..-.@.$=@@@#.O. X+@@@@:.?&<&*&<,*&<&",
"O XOX+.OO ....@.@.@@@..O..@@@@@.@@:::@:@@@@@.+...+@&&@@@@@%%*1***1***",
"+. . @ X :@@.@O;...-.. ..@@%@%.@+:+.+.O2#&=..@+. @@:.@.%@:@%&<1**<&<1",
"<<<<<<$&%@@..O.@..@...@@@@@@@@....@@@@@......O++O@@@@@%@@@@@%&*******",
"*3%4*<*5*3<<&@@@ @.:.:@%=:@%=:+6.@+- ... . X O .+:.:@:@:.:@%=%&*&*&*&",
"<<%::@::%%<<<*<<%&@@@@:@@@%@@@%.X.&@.O.OOXXO. O+@@@@@@:@@@%@@@%%*1***",
"&5%4%$@$@$@3%4&<*3*$@%@%@%@%@%@%.. &X...X6 X X %.-@$@$@%@%=:=%@%&*&*1",
"%<<*5*%*<::<<%%:%%<%$&@@%@%@%@@@:...@.@++XOOX+@@@&$@%@@@%@:@:@@@%**&%",
".<*4*4%4*:.4*5*$%$@$&$&$=%@$@%@$@%.. ...#. .+%.-@:@$@%@%@%@%@%@%@%&<&",
".<<*4*<44%.<<<5*<*%%$&%%%@%&%@%&%@%&@@@.@@%@@.%%@@%&%@%&@@%&@@%&&&%**",
" 3*4%4%4*4.<*5*4*5%%&$@%@$@%@$@%@%@%@$@$@$@@.-@$@$@$@$@%@$@%@$@%@$@*&",
"@<<*<<<*<%%<<%<*5<%@<%%::@@@%&%@%&%@%&%&%@@@@@%&%&%&%&%&%&%&%%%&%&%&%",
"@$%<&<@<*3%$+$*4*5*:&$%7=:@%@$&$&$&$@$@$@$&$@%&$@$&$&$&$@$&$@%@$@%@$@",
"@@@@@ ..@+.@<<<<<*4:<%<%%@%@<&%%%@%@@@%&%&%%%&$%%&$%%&$%%&%%%@%&%&%%%",
"=:=:=X . .+%&<*3*4*4&<%4%4@%*$@$@$@$@$@$&$&$&<&<&<&<&$&$&$&$&$@$&$@%&",
"%@:@@OO .@:@%@%&<%$<<%%%<%%:<@%@%@$&%&$%<%%%$&%&$%<&%&%&%%%&%%%%%&%&%",
"&<&$ X @&3*5*<&<=<@<&<%4%4%$1$&<&$&<&<&<&<&<&<&<&$&$@@.2+:898$&$&$&<&",
"<<<&O .@<<5<<<<@@@%&$%$%<%<%<&<%<&<%%&<%*%<*<%<%$&<@@+.+:@:+0@$%%&$%%",
"*3*< X @&<*<&$ .+%@$@$&<&4%%*<&<&<&$&<&<&<&<&<&<&<&<@.+q8*w9e2@$&<&$&",
"<<+&OOO .@&.@.O@$@@&%&&&%%%%<%<%<%<&@%<&@&@@%%%@%&@&%:0qr8800e%&%%%&$",
"*$+2#O . X . @@<&%@$&$&$&$@4&$%<&<&<&@@$&<@<@$&$@<%:&<+r*%8tO0&<&<&<&",
"<@%%<*OOO @%. %<@@%%%&$&%&%%<%<<<%<%<@$@<*%<&&<@@&<@$%:y%u800+<<%&$%%",
"*:@<*$ X X%$#.@: @@$&$&<&<@%%<1<&<&<&<&<&<&<*<*<*$&<&<&*uqi0O@@<&<&<&",
"<@%%<@O OO.+@@@ .*%&$&%&$&$@<%<<<<<<<<<<<*<<<<<<<<<<<%%@:80O..@@$%$&<",
"1%@<&@ . .@$#X :@<&<&$&<&<&<&<*<&<*31<<3&<*<&<<<*<*<&<*<&$@-.@@$@<&<&",
"<%@&%@OOO+@OO <.+@<%<%<%$&<<<%<<<*<<<<<<<<<<<<<<<*<<<<<<<*<<$&$%%%<<<",
"<3@:@$ X Xo.&. . @&<%3*5*3*3*$*<*<1<*3*3*3*3*3*<*<&<*3*<*<1<*<&<&<&<&",
"<%<@@@@+OO@*<O%++.<<3<3<<<<<<&<<<<<<<<<<<<<<<<<<<<<*<<<<<<<*<<<*<*<%<"};
