/* XPM */
static char * son_fus8_xpm[] = {
/* width height ncolors cpp [x_hot y_hot] */
"64 39 52 1 0 0",
/* colors */
" 	s topShadowColor	m white	c #bdbdbdbdbdbd",
".	s bottomShadowColor	m black	c #636363636363",
"X	s iconColor2	m white	c white",
"o	c #AAAADBDBFFFF",
"O	c #555592925555",
"+	c #55559292FFFF",
"@	c #AAAAB6B6FFFF",
"#	c #55556D6DAAAA",
"$	c #55559292AAAA",
"%	c #AAAA6D6DAAAA",
"&	c #AAAA92925555",
"*	c #AAAAB6B65555",
"=	c #FFFFB6B65555",
"-	c #FFFFDBDB5555",
";	c #AAAAB6B6AAAA",
":	c #AAAA9292AAAA",
">	c #AAAA6D6D5555",
",	c #FFFF92925555",
"<	c #55556D6D5555",
"1	c #AAAA6D6D0000",
"2	c #FFFFDBDBFFFF",
"3	c #5555B6B6AAAA",
"4	c #555549495555",
"5	c #FFFF6D6D5555",
"6	c #FFFFB6B6AAAA",
"7	c #AAAADBDBAAAA",
"8	c #AAAA49495555",
"9	c #000049495555",
"0	c #FFFFFFFFAAAA",
"q	c #FFFFB6B6FFFF",
"w	c #AAAAB6B60000",
"e	c #FFFFDBDBAAAA",
"r	c #AAAA92920000",
"t	c #FFFF6D6D0000",
"y	c #AAAA49490000",
"u	c #5555DBDBFFFF",
"i	c #AAAAFFFFFFFF",
"p	c #FFFF92920000",
"a	c #FFFF49495555",
"s	c #55556D6D0000",
"d	c #00006D6D5555",
"f	c #FFFF49490000",
"g	c #555549490000",
"h	c #AAAAFFFFAAAA",
"j	c #00004949AAAA",
"k	c #AAAA24245555",
"l	c #00006D6DAAAA",
"z	c #FFFFB6B60000",
"x	c #55554949AAAA",
"c	c #FFFF9292AAAA",
"v	c #AAAA9292FFFF",
"b	s none	m none	c none",
/* pixels */
"                                                               .",
" XXXXXXXXXXXXXXXXXXXXXXXXXXXXXXXXoO+@###$##%&&*===-XXXXXXXXXXXX.",
" XXXXXXXXXXXXXXXXXXXXXXXXXXXXXXXX%;@;$:$:$%:$%:#&&>,;XXXXXXXXXX.",
" XXXXXXXXXXXXXXXXXXXXXXXXXXXXXXXX$@<$:#$$%<<>$:#$:%1&2XXXXXXXXX.",
" XXXXXXXXXXXXXXXXXXXXXXXXXXXXXXXX$3#:4#<<##<#>::>><>56XXXXXXXXX.",
" X2272XXXXXXXXXXXXXXXXXX22XXXXXXX@;##$$:8>&::;::<:%><>22XXXXXXX.",
" 7o;o;7XXXXXXXXXXXXXXXX232XXXXXXXXo<#9#8O:&&:20=*>>4><$;XXXXXXX.",
" q2X2;oXXXXXXXXXXXXXXXXX;oXXXXXXXX2:$##8&6w*<@e==5><%>:@oXXXXXX.",
" $XXXXXXXX2XXX2XX2XXXXXXXXXXX2XXXXXX2<O8,r=e#&e=*,t5yy8$:$2XXXX.",
" $7XXXXXX@6XXXuoo2oXXXX2ioXX27o2XXo7o$:<,p=-$<76&&><8as:23;7XXX.",
" q#;XXXX;;;$X2<q*;:XX2o*O2XX*;O$ie3;:22<,==0:d6$O&>#488&XX7@70X.",
" X@$<2X2OXXdeX<@XX<@X03X22XoqXX22#@X@62>&=eX:#6=O5f><8g%XXXXX2X.",
" X2@9;2o:;;$@X<7XXO@X2*Xo2X7oXXXX<;@;7o<=whX;j-*&>54<8k&XXXXXXX.",
" XXX$9;e:7@6iXd2XX;:X2;X27X2;XXXX$;6@X2<,=0X;d6=&t>8484,XXXXXXX.",
" XXX2O%o$XXXXX$2XX2O:;XXo@Xo:XXXX<@XXXX:**0X#>;,:5y8<a>2XXXXXXX.",
" XXXX$:2<XXXXX<oXXX:O;2X2eXo#XXXXl:XXXX7&ee2O:**>t144>:XXXXXXXX.",
" 2XXe$@X<2XXXXOoXXXo#7XXo2X2<2XXX&<XXXX2&=0eO6=p:ty8<y6XXXXXXXX.",
" :$;3e2X0%$@7X:qXXX23XXX27XX@O@7eX@$;XXX$:;:=-=,>ra8<<@;XXXXXXX.",
" e3;6XXXX;;72X;oXXXX;XXXXoXX2@3o2XX@;XXXe;O*==zp&>18%<:3oXXXXXX.",
" XXXXXXXXXXXXXXXXXXXXXXXXXXXXXXXXXXXXXXXX2-e=-&,,t8g4x$#+;XXXXX.",
" e62XXXXXXXXXXXXXXXXXXXXXXXXXXXXXXXXXe@;$$;;==,&>5>##<##:$7@XXX.",
" c;e22ee;eee62XXXXXXXXXXXXXXXXXXXXXXXXXo;:$$:&*>>>###x$$$#;32XX.",
" ,*6==,*,**&pwXXXXXXXXXXXXXXXXXXXXXXXXXXXX@;$$##d4##<x:#;#;:;XX.",
" 6X0=2*c=666;6XXXXXXXXXXXXXXXXXXXXXXXXXXXX2o2;;$:$O#$#:@:$@3$XX.",
" XXXXXXXXXXXXXXXXXXXXXXXXXXXXXXXXXXXXXXXXXXXX2oXov;v:$$3$#;::oX.",
" XXXXXXXXXXXXXXXXXXXXXXXXXXXXXXXXXXXXXXXXXXXXXXe6oo@@v:$v$@$;oX.",
" XXXXXXXXXXXXXXXXXXXXXXXXXXXXXXXXXXXXXXXXXXXXXXXXX0X0Xoo722o2XX.",
" XXXXXXXXXXXXXXXXXXXXXXXXXXXXXXXXXXXXXXXXXXXXXXXXXXXXXXXXXXXXXX.",
"................................................................",
"bbbbbbbbbbbbbbbbbbbbbbbbbbbbbbbbbbbbbbbbbbbbbbbbbbbbbbbbbbbbbbbb",
"bbbbbbbbbbbbbbbbbbbbbbbbbbbbbbbbbbbbbbbbbbbbbbbbbbbbbbbbbbbbbbbb",
"bbbbbbbbbbbbbbbbbbbbbbbbbbbbbbbbbbbbbbbbbbbbbbbbbbbbbbbbbbbbbbbb",
"bbbbbbbbbbbbbbbbbbbbbbbbbbbbbbbbbbbbbbbbbbbbbbbbbbbbbbbbbbbbbbbb",
"bbbbbbbbbbbbbbbbbbbbbbbbbbbbbbbbbbbbbbbbbbbbbbbbbbbbbbbbbbbbbbbb",
"bbbbbbbbbbbbbbbbbbbbbbbbbbbbbbbbbbbbbbbbbbbbbbbbbbbbbbbbbbbbbbbb",
"bbbbbbbbbbbbbbbbbbbbbbbbbbbbbbbbbbbbbbbbbbbbbbbbbbbbbbbbbbbbbbbb",
"bbbbbbbbbbbbbbbbbbbbbbbbbbbbbbbbbbbbbbbbbbbbbbbbbbbbbbbbbbbbbbbb",
"bbbbbbbbbbbbbbbbbbbbbbbbbbbbbbbbbbbbbbbbbbbbbbbbbbbbbbbbbbbbbbbb",
"bbbbbbbbbbbbbbbbbbbbbbbbbbbbbbbbbbbbbbbbbbbbbbbbbbbbbbbbbbbbbbbb"};
